<?xml version="1.0" encoding="UTF-8" standalone="no"?>
<!DOCTYPE svg PUBLIC "-//W3C//DTD SVG 1.1//EN"
 "http://www.w3.org/Graphics/SVG/1.1/DTD/svg11.dtd">
<!-- Generated by graphviz version 2.40.1 (20161225.0304)
 -->
<!-- Title: state transitions Pages: 1 -->
<svg width="219pt" height="188pt"
 viewBox="0.00 0.00 219.36 188.00" xmlns="http://www.w3.org/2000/svg" xmlns:xlink="http://www.w3.org/1999/xlink">
<g id="graph0" class="graph" transform="scale(1 1) rotate(0) translate(4 184)">
<title>state transitions</title>
<polygon fill="#ffffff" stroke="transparent" points="-4,4 -4,-184 215.363,-184 215.363,4 -4,4"/>
<g id="clust1" class="cluster state regular">
<title>cluster_id_fsm_d</title>
<path fill="none" stroke="#000000" stroke-width="2" d="M20,-8C20,-8 177,-8 177,-8 183,-8 189,-14 189,-20 189,-20 189,-160 189,-160 189,-166 183,-172 177,-172 177,-172 20,-172 20,-172 14,-172 8,-166 8,-160 8,-160 8,-20 8,-20 8,-14 14,-8 20,-8"/>
<text text-anchor="start" x="74.1622" y="-153.2" font-family="Helvetica,sans-Serif" font-size="12.00" fill="#000000">id_fsm_d</text>
</g>
<!-- id_fsm_d -->
<!-- FIRST_CYCLE -->
<g id="node2" class="node state regular">
<title>FIRST_CYCLE</title>
<polygon fill="#ffffff" fill-opacity="0.003922" stroke="transparent" stroke-width="2" points="119.5,-52 16.5,-52 16.5,-16 119.5,-16 119.5,-52"/>
<text text-anchor="start" x="27.8326" y="-30.2" font-family="Helvetica,sans-Serif" font-size="12.00" fill="#000000">FIRST_CYCLE</text>
<path fill="none" stroke="#000000" stroke-width="2" d="M28.8333,-17C28.8333,-17 107.1667,-17 107.1667,-17 112.8333,-17 118.5,-22.6667 118.5,-28.3333 118.5,-28.3333 118.5,-39.6667 118.5,-39.6667 118.5,-45.3333 112.8333,-51 107.1667,-51 107.1667,-51 28.8333,-51 28.8333,-51 23.1667,-51 17.5,-45.3333 17.5,-39.6667 17.5,-39.6667 17.5,-28.3333 17.5,-28.3333 17.5,-22.6667 23.1667,-17 28.8333,-17"/>
</g>
<!-- MULTI_CYCLE -->
<g id="node3" class="node state regular">
<title>MULTI_CYCLE</title>
<polygon fill="#ffffff" fill-opacity="0.003922" stroke="transparent" stroke-width="2" points="120,-134 16,-134 16,-98 120,-98 120,-134"/>
<text text-anchor="start" x="26.6666" y="-112.2" font-family="Helvetica,sans-Serif" font-size="12.00" fill="#000000">MULTI_CYCLE</text>
<path fill="none" stroke="#000000" stroke-width="2" d="M28.3333,-99C28.3333,-99 107.6667,-99 107.6667,-99 113.3333,-99 119,-104.6667 119,-110.3333 119,-110.3333 119,-121.6667 119,-121.6667 119,-127.3333 113.3333,-133 107.6667,-133 107.6667,-133 28.3333,-133 28.3333,-133 22.6667,-133 17,-127.3333 17,-121.6667 17,-121.6667 17,-110.3333 17,-110.3333 17,-104.6667 22.6667,-99 28.3333,-99"/>
</g>
<!-- MULTI_CYCLE&#45;&gt;FIRST_CYCLE -->
<g id="edge1" class="edge transition">
<title>MULTI_CYCLE&#45;&gt;FIRST_CYCLE</title>
<path fill="none" stroke="#000000" d="M68,-97.8015C68,-87.3976 68,-74.1215 68,-62.3768"/>
<polygon fill="#000000" stroke="#000000" points="71.5001,-62.1476 68,-52.1476 64.5001,-62.1476 71.5001,-62.1476"/>
<text text-anchor="start" x="68" y="-72" font-family="Helvetica,sans-Serif" font-size="10.00" fill="#000000">multicycle_done &amp; ready_wb_i &#160;&#160;</text>
</g>
</g>
</svg>
