<?xml version="1.0" encoding="UTF-8" standalone="no"?>
<!DOCTYPE svg PUBLIC "-//W3C//DTD SVG 1.1//EN"
 "http://www.w3.org/Graphics/SVG/1.1/DTD/svg11.dtd">
<!-- Generated by graphviz version 2.40.1 (20161225.0304)
 -->
<!-- Title: state transitions Pages: 1 -->
<svg width="1073pt" height="610pt"
 viewBox="0.00 0.00 1072.69 610.00" xmlns="http://www.w3.org/2000/svg" xmlns:xlink="http://www.w3.org/1999/xlink">
<g id="graph0" class="graph" transform="scale(1 1) rotate(0) translate(4 606)">
<title>state transitions</title>
<polygon fill="#ffffff" stroke="transparent" points="-4,4 -4,-606 1068.692,-606 1068.692,4 -4,4"/>
<g id="clust1" class="cluster state regular">
<title>cluster_ctrl_fsm_ns</title>
<path fill="none" stroke="#000000" stroke-width="2" d="M20,-8C20,-8 894,-8 894,-8 900,-8 906,-14 906,-20 906,-20 906,-582 906,-582 906,-588 900,-594 894,-594 894,-594 20,-594 20,-594 14,-594 8,-588 8,-582 8,-582 8,-20 8,-20 8,-14 14,-8 20,-8"/>
<text text-anchor="start" x="426.8328" y="-575.2" font-family="Helvetica,sans-Serif" font-size="12.00" fill="#000000">ctrl_fsm_ns</text>
</g>
<!-- ctrl_fsm_ns -->
<!-- RESET -->
<g id="node2" class="node state regular">
<title>RESET</title>
<polygon fill="#ffffff" fill-opacity="0.003922" stroke="transparent" stroke-width="2" points="627,-556 565,-556 565,-520 627,-520 627,-556"/>
<text text-anchor="start" x="575.999" y="-534.2" font-family="Helvetica,sans-Serif" font-size="12.00" fill="#000000">RESET</text>
<path fill="none" stroke="#000000" stroke-width="2" d="M577.3333,-521C577.3333,-521 614.6667,-521 614.6667,-521 620.3333,-521 626,-526.6667 626,-532.3333 626,-532.3333 626,-543.6667 626,-543.6667 626,-549.3333 620.3333,-555 614.6667,-555 614.6667,-555 577.3333,-555 577.3333,-555 571.6667,-555 566,-549.3333 566,-543.6667 566,-543.6667 566,-532.3333 566,-532.3333 566,-526.6667 571.6667,-521 577.3333,-521"/>
</g>
<!-- BOOT_SET -->
<g id="node3" class="node state regular">
<title>BOOT_SET</title>
<polygon fill="#ffffff" fill-opacity="0.003922" stroke="transparent" stroke-width="2" points="639,-474 553,-474 553,-438 639,-438 639,-474"/>
<text text-anchor="start" x="563.9948" y="-452.2" font-family="Helvetica,sans-Serif" font-size="12.00" fill="#000000">BOOT_SET</text>
<path fill="none" stroke="#000000" stroke-width="2" d="M565.3333,-439C565.3333,-439 626.6667,-439 626.6667,-439 632.3333,-439 638,-444.6667 638,-450.3333 638,-450.3333 638,-461.6667 638,-461.6667 638,-467.3333 632.3333,-473 626.6667,-473 626.6667,-473 565.3333,-473 565.3333,-473 559.6667,-473 554,-467.3333 554,-461.6667 554,-461.6667 554,-450.3333 554,-450.3333 554,-444.6667 559.6667,-439 565.3333,-439"/>
</g>
<!-- RESET&#45;&gt;BOOT_SET -->
<g id="edge1" class="edge transition">
<title>RESET&#45;&gt;BOOT_SET</title>
<path fill="none" stroke="#000000" d="M596,-519.8015C596,-509.3976 596,-496.1215 596,-484.3768"/>
<polygon fill="#000000" stroke="#000000" points="599.5001,-484.1476 596,-474.1476 592.5001,-484.1476 599.5001,-484.1476"/>
<text text-anchor="middle" x="597.3895" y="-494" font-family="Helvetica,sans-Serif" font-size="10.00" fill="#000000"> </text>
</g>
<!-- FIRST_FETCH -->
<g id="node6" class="node state regular">
<title>FIRST_FETCH</title>
<polygon fill="#ffffff" fill-opacity="0.003922" stroke="transparent" stroke-width="2" points="647.5,-392 544.5,-392 544.5,-356 647.5,-356 647.5,-392"/>
<text text-anchor="start" x="555.8386" y="-370.2" font-family="Helvetica,sans-Serif" font-size="12.00" fill="#000000">FIRST_FETCH</text>
<path fill="none" stroke="#000000" stroke-width="2" d="M556.8333,-357C556.8333,-357 635.1667,-357 635.1667,-357 640.8333,-357 646.5,-362.6667 646.5,-368.3333 646.5,-368.3333 646.5,-379.6667 646.5,-379.6667 646.5,-385.3333 640.8333,-391 635.1667,-391 635.1667,-391 556.8333,-391 556.8333,-391 551.1667,-391 545.5,-385.3333 545.5,-379.6667 545.5,-379.6667 545.5,-368.3333 545.5,-368.3333 545.5,-362.6667 551.1667,-357 556.8333,-357"/>
</g>
<!-- BOOT_SET&#45;&gt;FIRST_FETCH -->
<g id="edge2" class="edge transition">
<title>BOOT_SET&#45;&gt;FIRST_FETCH</title>
<path fill="none" stroke="#000000" d="M596,-437.8015C596,-427.3976 596,-414.1215 596,-402.3768"/>
<polygon fill="#000000" stroke="#000000" points="599.5001,-402.1476 596,-392.1476 592.5001,-402.1476 599.5001,-402.1476"/>
<text text-anchor="middle" x="597.3895" y="-412" font-family="Helvetica,sans-Serif" font-size="10.00" fill="#000000"> </text>
</g>
<!-- WAIT_SLEEP -->
<g id="node4" class="node state regular">
<title>WAIT_SLEEP</title>
<polygon fill="#ffffff" fill-opacity="0.003922" stroke="transparent" stroke-width="2" points="182.5,-134 85.5,-134 85.5,-98 182.5,-98 182.5,-134"/>
<text text-anchor="start" x="96.826" y="-112.2" font-family="Helvetica,sans-Serif" font-size="12.00" fill="#000000">WAIT_SLEEP</text>
<path fill="none" stroke="#000000" stroke-width="2" d="M97.8333,-99C97.8333,-99 170.1667,-99 170.1667,-99 175.8333,-99 181.5,-104.6667 181.5,-110.3333 181.5,-110.3333 181.5,-121.6667 181.5,-121.6667 181.5,-127.3333 175.8333,-133 170.1667,-133 170.1667,-133 97.8333,-133 97.8333,-133 92.1667,-133 86.5,-127.3333 86.5,-121.6667 86.5,-121.6667 86.5,-110.3333 86.5,-110.3333 86.5,-104.6667 92.1667,-99 97.8333,-99"/>
</g>
<!-- SLEEP -->
<g id="node5" class="node state regular">
<title>SLEEP</title>
<polygon fill="#ffffff" fill-opacity="0.003922" stroke="transparent" stroke-width="2" points="371,-52 311,-52 311,-16 371,-16 371,-52"/>
<text text-anchor="start" x="321.659" y="-30.2" font-family="Helvetica,sans-Serif" font-size="12.00" fill="#000000">SLEEP</text>
<path fill="none" stroke="#000000" stroke-width="2" d="M323.3333,-17C323.3333,-17 358.6667,-17 358.6667,-17 364.3333,-17 370,-22.6667 370,-28.3333 370,-28.3333 370,-39.6667 370,-39.6667 370,-45.3333 364.3333,-51 358.6667,-51 358.6667,-51 323.3333,-51 323.3333,-51 317.6667,-51 312,-45.3333 312,-39.6667 312,-39.6667 312,-28.3333 312,-28.3333 312,-22.6667 317.6667,-17 323.3333,-17"/>
</g>
<!-- WAIT_SLEEP&#45;&gt;SLEEP -->
<g id="edge3" class="edge transition">
<title>WAIT_SLEEP&#45;&gt;SLEEP</title>
<path fill="none" stroke="#000000" d="M179.6833,-97.9032C216.1411,-83.461 266.6911,-63.4364 301.4366,-49.6725"/>
<polygon fill="#000000" stroke="#000000" points="302.7846,-52.9031 310.7927,-45.9662 300.2065,-46.3952 302.7846,-52.9031"/>
<text text-anchor="middle" x="252.3895" y="-72" font-family="Helvetica,sans-Serif" font-size="10.00" fill="#000000"> </text>
</g>
<!-- SLEEP&#45;&gt;FIRST_FETCH -->
<g id="edge4" class="edge transition">
<title>SLEEP&#45;&gt;FIRST_FETCH</title>
<path fill="none" stroke="#000000" d="M371.0996,-36.8775C428.5105,-42.7739 548,-57.1859 548,-75 548,-142.5 548,-142.5 548,-142.5 548,-244.2166 741,-163.7834 741,-265.5 741,-333 741,-333 741,-333 741,-351.4494 696.9836,-362.0149 657.4536,-367.7835"/>
<polygon fill="#000000" stroke="#000000" points="656.9596,-364.3184 647.5298,-369.1486 657.9136,-371.2531 656.9596,-364.3184"/>
<text text-anchor="start" x="706" y="-195" font-family="Helvetica,sans-Serif" font-size="10.00" fill="#000000">irq_nm || irq_pending_i || debug_req_i || debug_mode_q || debug_single_step_i &#160;&#160;</text>
</g>
<!-- DECODE -->
<g id="node7" class="node state regular">
<title>DECODE</title>
<polygon fill="#ffffff" fill-opacity="0.003922" stroke="transparent" stroke-width="2" points="308.5,-310 235.5,-310 235.5,-274 308.5,-274 308.5,-310"/>
<text text-anchor="start" x="246.8356" y="-288.2" font-family="Helvetica,sans-Serif" font-size="12.00" fill="#000000">DECODE</text>
<path fill="none" stroke="#000000" stroke-width="2" d="M247.8333,-275C247.8333,-275 296.1667,-275 296.1667,-275 301.8333,-275 307.5,-280.6667 307.5,-286.3333 307.5,-286.3333 307.5,-297.6667 307.5,-297.6667 307.5,-303.3333 301.8333,-309 296.1667,-309 296.1667,-309 247.8333,-309 247.8333,-309 242.1667,-309 236.5,-303.3333 236.5,-297.6667 236.5,-297.6667 236.5,-286.3333 236.5,-286.3333 236.5,-280.6667 242.1667,-275 247.8333,-275"/>
</g>
<!-- FIRST_FETCH&#45;&gt;DECODE -->
<g id="edge5" class="edge transition">
<title>FIRST_FETCH&#45;&gt;DECODE</title>
<path fill="none" stroke="#000000" d="M544.303,-360.9162C482.1516,-345.1865 378.75,-319.017 318.8444,-303.8557"/>
<polygon fill="#000000" stroke="#000000" points="319.4538,-300.3996 308.9007,-301.3391 317.7363,-307.1857 319.4538,-300.3996"/>
<text text-anchor="start" x="455" y="-330" font-family="Helvetica,sans-Serif" font-size="10.00" fill="#000000">id_in_ready_o &#160;&#160;</text>
</g>
<!-- IRQ_TAKEN -->
<g id="node8" class="node state regular">
<title>IRQ_TAKEN</title>
<polygon fill="#ffffff" fill-opacity="0.003922" stroke="transparent" stroke-width="2" points="471,-216 381,-216 381,-180 471,-180 471,-216"/>
<text text-anchor="start" x="391.9974" y="-194.2" font-family="Helvetica,sans-Serif" font-size="12.00" fill="#000000">IRQ_TAKEN</text>
<path fill="none" stroke="#000000" stroke-width="2" d="M393.3333,-181C393.3333,-181 458.6667,-181 458.6667,-181 464.3333,-181 470,-186.6667 470,-192.3333 470,-192.3333 470,-203.6667 470,-203.6667 470,-209.3333 464.3333,-215 458.6667,-215 458.6667,-215 393.3333,-215 393.3333,-215 387.6667,-215 382,-209.3333 382,-203.6667 382,-203.6667 382,-192.3333 382,-192.3333 382,-186.6667 387.6667,-181 393.3333,-181"/>
</g>
<!-- FIRST_FETCH&#45;&gt;IRQ_TAKEN -->
<g id="edge6" class="edge transition">
<title>FIRST_FETCH&#45;&gt;IRQ_TAKEN</title>
<path fill="none" stroke="#000000" d="M588.1804,-355.9014C583.131,-343.291 576.9662,-325.9385 573.983,-310 572.4078,-301.5842 576.5403,-239.5279 571,-233 546.6345,-204.2912 524.5548,-225.0344 488,-216 485.7048,-215.4328 483.3669,-214.8368 481.0089,-214.2207"/>
<polygon fill="#000000" stroke="#000000" points="481.8261,-210.8161 471.26,-211.5963 480.0065,-217.5755 481.8261,-210.8161"/>
<text text-anchor="start" x="573" y="-289" font-family="Helvetica,sans-Serif" font-size="10.00" fill="#000000">handle_irq &#160;&#160;</text>
</g>
<!-- DBG_TAKEN_IF -->
<g id="node9" class="node state regular">
<title>DBG_TAKEN_IF</title>
<polygon fill="#ffffff" fill-opacity="0.003922" stroke="transparent" stroke-width="2" points="456,-134 344,-134 344,-98 456,-98 456,-134"/>
<text text-anchor="start" x="354.9952" y="-112.2" font-family="Helvetica,sans-Serif" font-size="12.00" fill="#000000">DBG_TAKEN_IF</text>
<path fill="none" stroke="#000000" stroke-width="2" d="M356.3333,-99C356.3333,-99 443.6667,-99 443.6667,-99 449.3333,-99 455,-104.6667 455,-110.3333 455,-110.3333 455,-121.6667 455,-121.6667 455,-127.3333 449.3333,-133 443.6667,-133 443.6667,-133 356.3333,-133 356.3333,-133 350.6667,-133 345,-127.3333 345,-121.6667 345,-121.6667 345,-110.3333 345,-110.3333 345,-104.6667 350.6667,-99 356.3333,-99"/>
</g>
<!-- FIRST_FETCH&#45;&gt;DBG_TAKEN_IF -->
<g id="edge7" class="edge transition">
<title>FIRST_FETCH&#45;&gt;DBG_TAKEN_IF</title>
<path fill="none" stroke="#000000" d="M610.5214,-355.7938C624.9376,-335.3558 643.1323,-301.4612 630,-274 614.7279,-242.0642 600.4618,-238.1197 568,-224 544.9449,-213.9719 529.7394,-233.8161 512,-216 488.5392,-192.4379 524.1169,-165.8995 501,-142 495.4489,-136.2609 481.735,-131.3903 466.1416,-127.4709"/>
<polygon fill="#000000" stroke="#000000" points="466.7803,-124.0259 456.2458,-125.1542 465.1847,-130.8416 466.7803,-124.0259"/>
<text text-anchor="start" x="620" y="-242" font-family="Helvetica,sans-Serif" font-size="10.00" fill="#000000">enter_debug_mode &#160;&#160;</text>
</g>
<!-- DECODE&#45;&gt;IRQ_TAKEN -->
<g id="edge10" class="edge transition">
<title>DECODE&#45;&gt;IRQ_TAKEN</title>
<path fill="none" stroke="#000000" d="M308.7615,-273.8833C313.5958,-271.3193 318.4486,-268.6514 323,-266 346.5472,-252.2827 372.1192,-235.412 391.8925,-221.9066"/>
<polygon fill="#000000" stroke="#000000" points="394.0053,-224.7015 400.2644,-216.1531 390.0406,-218.9324 394.0053,-224.7015"/>
<text text-anchor="start" x="375" y="-248" font-family="Helvetica,sans-Serif" font-size="10.00" fill="#000000">handle_irq &#160;&#160;</text>
<text text-anchor="start" x="375" y="-236" font-family="Helvetica,sans-Serif" font-size="10.00" fill="#000000">!stall &amp;&amp; !special_req &amp;&amp; !id_wb_pending &#160;&#160;</text>
</g>
<!-- DECODE&#45;&gt;DBG_TAKEN_IF -->
<g id="edge9" class="edge transition">
<title>DECODE&#45;&gt;DBG_TAKEN_IF</title>
<path fill="none" stroke="#000000" d="M275.7116,-273.781C277.226,-260.8248 276.7545,-243.8596 267,-233 240.4949,-203.4921 204.6244,-246.6016 179.39,-216 169.2107,-203.6557 168.3848,-191.614 179.39,-180 227.7011,-129.0166 446.6889,-213.9834 495,-163 509.9828,-147.1885 490.796,-135.9501 465.8367,-128.4364"/>
<polygon fill="#000000" stroke="#000000" points="466.618,-125.0213 456.0473,-125.7373 464.7573,-131.7695 466.618,-125.0213"/>
<text text-anchor="start" x="179" y="-201" font-family="Helvetica,sans-Serif" font-size="10.00" fill="#000000">enter_debug_mode &#160;&#160;</text>
<text text-anchor="start" x="179" y="-189" font-family="Helvetica,sans-Serif" font-size="10.00" fill="#000000">!stall &amp;&amp; !special_req &amp;&amp; !id_wb_pending &#160;&#160;</text>
</g>
<!-- FLUSH -->
<g id="node11" class="node state regular">
<title>FLUSH</title>
<polygon fill="#ffffff" fill-opacity="0.003922" stroke="transparent" stroke-width="2" points="123.5,-216 62.5,-216 62.5,-180 123.5,-180 123.5,-216"/>
<text text-anchor="start" x="73.835" y="-194.2" font-family="Helvetica,sans-Serif" font-size="12.00" fill="#000000">FLUSH</text>
<path fill="none" stroke="#000000" stroke-width="2" d="M74.8333,-181C74.8333,-181 111.1667,-181 111.1667,-181 116.8333,-181 122.5,-186.6667 122.5,-192.3333 122.5,-192.3333 122.5,-203.6667 122.5,-203.6667 122.5,-209.3333 116.8333,-215 111.1667,-215 111.1667,-215 74.8333,-215 74.8333,-215 69.1667,-215 63.5,-209.3333 63.5,-203.6667 63.5,-203.6667 63.5,-192.3333 63.5,-192.3333 63.5,-186.6667 69.1667,-181 74.8333,-181"/>
</g>
<!-- DECODE&#45;&gt;FLUSH -->
<g id="edge8" class="edge transition">
<title>DECODE&#45;&gt;FLUSH</title>
<path fill="none" stroke="#000000" d="M235.2831,-286.6219C197.9078,-280.554 143.1203,-269.838 126.137,-257 115.6992,-249.1099 108.0715,-236.9178 102.7844,-225.6604"/>
<polygon fill="#000000" stroke="#000000" points="105.8679,-223.9682 98.7288,-216.1397 99.4278,-226.7115 105.8679,-223.9682"/>
<text text-anchor="start" x="126" y="-248" font-family="Helvetica,sans-Serif" font-size="10.00" fill="#000000">ready_wb_i | wb_exception_o &#160;&#160;</text>
<text text-anchor="start" x="126" y="-236" font-family="Helvetica,sans-Serif" font-size="10.00" fill="#000000">special_req &#160;&#160;</text>
</g>
<!-- IRQ_TAKEN&#45;&gt;DECODE -->
<g id="edge11" class="edge transition">
<title>IRQ_TAKEN&#45;&gt;DECODE</title>
<path fill="none" stroke="#000000" d="M380.7372,-210.2993C364.4058,-215.8523 346.2971,-223.3656 331.221,-233 317.1116,-242.0166 303.6912,-254.8898 293.2047,-266.3119"/>
<polygon fill="#000000" stroke="#000000" points="290.4678,-264.1227 286.441,-273.9225 295.7001,-268.7727 290.4678,-264.1227"/>
<text text-anchor="middle" x="332.3895" y="-242" font-family="Helvetica,sans-Serif" font-size="10.00" fill="#000000"> </text>
</g>
<!-- DBG_TAKEN_IF&#45;&gt;DECODE -->
<g id="edge12" class="edge transition">
<title>DBG_TAKEN_IF&#45;&gt;DECODE</title>
<path fill="none" stroke="#000000" d="M343.9041,-120.7486C252.8129,-128.6295 81.6529,-144.2135 70,-151 56.2983,-158.9797 54.071,-164.904 49.221,-180 37.7348,-215.7513 53.9947,-234.4219 84,-257 105.749,-273.3655 176.7633,-283.1253 225.0113,-288.0274"/>
<polygon fill="#000000" stroke="#000000" points="224.9422,-291.5373 235.2358,-289.0287 225.6246,-284.5706 224.9422,-291.5373"/>
<text text-anchor="middle" x="50.3895" y="-195" font-family="Helvetica,sans-Serif" font-size="10.00" fill="#000000"> </text>
</g>
<!-- DBG_TAKEN_ID -->
<g id="node10" class="node state regular">
<title>DBG_TAKEN_ID</title>
<polygon fill="#ffffff" fill-opacity="0.003922" stroke="transparent" stroke-width="2" points="328.5,-392 215.5,-392 215.5,-356 328.5,-356 328.5,-392"/>
<text text-anchor="start" x="226.8292" y="-370.2" font-family="Helvetica,sans-Serif" font-size="12.00" fill="#000000">DBG_TAKEN_ID</text>
<path fill="none" stroke="#000000" stroke-width="2" d="M227.8333,-357C227.8333,-357 316.1667,-357 316.1667,-357 321.8333,-357 327.5,-362.6667 327.5,-368.3333 327.5,-368.3333 327.5,-379.6667 327.5,-379.6667 327.5,-385.3333 321.8333,-391 316.1667,-391 316.1667,-391 227.8333,-391 227.8333,-391 222.1667,-391 216.5,-385.3333 216.5,-379.6667 216.5,-379.6667 216.5,-368.3333 216.5,-368.3333 216.5,-362.6667 222.1667,-357 227.8333,-357"/>
</g>
<!-- DBG_TAKEN_ID&#45;&gt;DECODE -->
<g id="edge13" class="edge transition">
<title>DBG_TAKEN_ID&#45;&gt;DECODE</title>
<path fill="none" stroke="#000000" d="M272,-355.8015C272,-345.3976 272,-332.1215 272,-320.3768"/>
<polygon fill="#000000" stroke="#000000" points="275.5001,-320.1476 272,-310.1476 268.5001,-320.1476 275.5001,-320.1476"/>
<text text-anchor="middle" x="273.3895" y="-330" font-family="Helvetica,sans-Serif" font-size="10.00" fill="#000000"> </text>
</g>
<!-- FLUSH&#45;&gt;WAIT_SLEEP -->
<g id="edge14" class="edge transition">
<title>FLUSH&#45;&gt;WAIT_SLEEP</title>
<path fill="none" stroke="#000000" d="M80.9108,-179.8952C76.4699,-170.8587 73.604,-159.9708 78.55,-151 80.6215,-147.2429 83.2848,-143.8334 86.3208,-140.7507"/>
<polygon fill="#000000" stroke="#000000" points="88.6953,-143.3246 93.9781,-134.1408 84.1212,-138.0257 88.6953,-143.3246"/>
<text text-anchor="start" x="78" y="-154" font-family="Helvetica,sans-Serif" font-size="10.00" fill="#000000">wfi_insn &#160;&#160;</text>
</g>
<!-- FLUSH&#45;&gt;DECODE -->
<g id="edge16" class="edge transition">
<title>FLUSH&#45;&gt;DECODE</title>
<path fill="none" stroke="#000000" d="M89.4854,-216.1229C88.0834,-229.0314 88.6421,-245.979 98.221,-257 114.5503,-275.7878 179.6316,-284.807 225.3323,-288.9012"/>
<polygon fill="#000000" stroke="#000000" points="225.0798,-292.3922 235.3393,-289.7477 225.6699,-285.4172 225.0798,-292.3922"/>
<text text-anchor="middle" x="99.3895" y="-242" font-family="Helvetica,sans-Serif" font-size="10.00" fill="#000000"> </text>
</g>
<!-- FLUSH&#45;&gt;DBG_TAKEN_IF -->
<g id="edge15" class="edge transition">
<title>FLUSH&#45;&gt;DBG_TAKEN_IF</title>
<path fill="none" stroke="#000000" d="M116.0658,-179.8502C130.0857,-169.754 148.7889,-157.8734 167.225,-151 196.891,-139.9398 275.9207,-129.4463 333.6903,-122.8853"/>
<polygon fill="#000000" stroke="#000000" points="334.3028,-126.3386 343.8508,-121.7467 333.5232,-119.3822 334.3028,-126.3386"/>
<text text-anchor="start" x="167" y="-154" font-family="Helvetica,sans-Serif" font-size="10.00" fill="#000000">enter_debug_mode_prio_q &amp;&amp; !(ebrk_insn_prio &amp;&amp; ebreak_into_debug) &#160;&#160;</text>
</g>
</g>
</svg>
