<?xml version="1.0" encoding="UTF-8" standalone="no"?>
<!DOCTYPE svg PUBLIC "-//W3C//DTD SVG 1.1//EN"
 "http://www.w3.org/Graphics/SVG/1.1/DTD/svg11.dtd">
<!-- Generated by graphviz version 2.40.1 (20161225.0304)
 -->
<!-- Title: state transitions Pages: 1 -->
<svg width="303pt" height="352pt"
 viewBox="0.00 0.00 303.13 352.00" xmlns="http://www.w3.org/2000/svg" xmlns:xlink="http://www.w3.org/1999/xlink">
<g id="graph0" class="graph" transform="scale(1 1) rotate(0) translate(4 348)">
<title>state transitions</title>
<polygon fill="#ffffff" stroke="transparent" points="-4,4 -4,-348 299.126,-348 299.126,4 -4,4"/>
<g id="clust1" class="cluster state regular">
<title>cluster_inval_state_d</title>
<path fill="none" stroke="#000000" stroke-width="2" d="M20,-8C20,-8 262,-8 262,-8 268,-8 274,-14 274,-20 274,-20 274,-324 274,-324 274,-330 268,-336 262,-336 262,-336 20,-336 20,-336 14,-336 8,-330 8,-324 8,-324 8,-20 8,-20 8,-14 14,-8 20,-8"/>
<text text-anchor="start" x="105.6546" y="-317.2" font-family="Helvetica,sans-Serif" font-size="12.00" fill="#000000">inval_state_d</text>
</g>
<!-- inval_state_d -->
<!-- OUT_OF_RESET -->
<g id="node2" class="node state regular">
<title>OUT_OF_RESET</title>
<polygon fill="#ffffff" fill-opacity="0.003922" stroke="transparent" stroke-width="2" points="229.5,-298 112.5,-298 112.5,-262 229.5,-262 229.5,-298"/>
<text text-anchor="start" x="123.8312" y="-276.2" font-family="Helvetica,sans-Serif" font-size="12.00" fill="#000000">OUT_OF_RESET</text>
<path fill="none" stroke="#000000" stroke-width="2" d="M124.8333,-263C124.8333,-263 217.1667,-263 217.1667,-263 222.8333,-263 228.5,-268.6667 228.5,-274.3333 228.5,-274.3333 228.5,-285.6667 228.5,-285.6667 228.5,-291.3333 222.8333,-297 217.1667,-297 217.1667,-297 124.8333,-297 124.8333,-297 119.1667,-297 113.5,-291.3333 113.5,-285.6667 113.5,-285.6667 113.5,-274.3333 113.5,-274.3333 113.5,-268.6667 119.1667,-263 124.8333,-263"/>
</g>
<!-- AWAIT_SCRAMBLE_KEY -->
<g id="node3" class="node state regular">
<title>AWAIT_SCRAMBLE_KEY</title>
<polygon fill="#ffffff" fill-opacity="0.003922" stroke="transparent" stroke-width="2" points="252.5,-216 89.5,-216 89.5,-180 252.5,-180 252.5,-216"/>
<text text-anchor="start" x="100.8248" y="-194.2" font-family="Helvetica,sans-Serif" font-size="12.00" fill="#000000">AWAIT_SCRAMBLE_KEY</text>
<path fill="none" stroke="#000000" stroke-width="2" d="M101.8333,-181C101.8333,-181 240.1667,-181 240.1667,-181 245.8333,-181 251.5,-186.6667 251.5,-192.3333 251.5,-192.3333 251.5,-203.6667 251.5,-203.6667 251.5,-209.3333 245.8333,-215 240.1667,-215 240.1667,-215 101.8333,-215 101.8333,-215 96.1667,-215 90.5,-209.3333 90.5,-203.6667 90.5,-203.6667 90.5,-192.3333 90.5,-192.3333 90.5,-186.6667 96.1667,-181 101.8333,-181"/>
</g>
<!-- OUT_OF_RESET&#45;&gt;AWAIT_SCRAMBLE_KEY -->
<g id="edge1" class="edge transition">
<title>OUT_OF_RESET&#45;&gt;AWAIT_SCRAMBLE_KEY</title>
<path fill="none" stroke="#000000" d="M171,-261.8015C171,-251.3976 171,-238.1215 171,-226.3768"/>
<polygon fill="#000000" stroke="#000000" points="174.5001,-226.1476 171,-216.1476 167.5001,-226.1476 174.5001,-226.1476"/>
<text text-anchor="middle" x="172.3895" y="-236" font-family="Helvetica,sans-Serif" font-size="10.00" fill="#000000"> </text>
</g>
<!-- INVAL_CACHE -->
<g id="node4" class="node state regular">
<title>INVAL_CACHE</title>
<polygon fill="#ffffff" fill-opacity="0.003922" stroke="transparent" stroke-width="2" points="148.5,-134 43.5,-134 43.5,-98 148.5,-98 148.5,-134"/>
<text text-anchor="start" x="54.8306" y="-112.2" font-family="Helvetica,sans-Serif" font-size="12.00" fill="#000000">INVAL_CACHE</text>
<path fill="none" stroke="#000000" stroke-width="2" d="M55.8333,-99C55.8333,-99 136.1667,-99 136.1667,-99 141.8333,-99 147.5,-104.6667 147.5,-110.3333 147.5,-110.3333 147.5,-121.6667 147.5,-121.6667 147.5,-127.3333 141.8333,-133 136.1667,-133 136.1667,-133 55.8333,-133 55.8333,-133 50.1667,-133 44.5,-127.3333 44.5,-121.6667 44.5,-121.6667 44.5,-110.3333 44.5,-110.3333 44.5,-104.6667 50.1667,-99 55.8333,-99"/>
</g>
<!-- AWAIT_SCRAMBLE_KEY&#45;&gt;INVAL_CACHE -->
<g id="edge2" class="edge transition">
<title>AWAIT_SCRAMBLE_KEY&#45;&gt;INVAL_CACHE</title>
<path fill="none" stroke="#000000" d="M89.2958,-180.9129C73.1791,-175.8841 59.6471,-169.8609 54.545,-163 49.1095,-155.6907 51.6626,-148.1357 57.5606,-141.2772"/>
<polygon fill="#000000" stroke="#000000" points="60.218,-143.5801 65.0536,-134.1531 55.3947,-138.507 60.218,-143.5801"/>
<text text-anchor="start" x="54" y="-154" font-family="Helvetica,sans-Serif" font-size="10.00" fill="#000000">ic_scr_key_valid_i &#160;&#160;</text>
</g>
<!-- INVAL_CACHE&#45;&gt;AWAIT_SCRAMBLE_KEY -->
<g id="edge3" class="edge transition">
<title>INVAL_CACHE&#45;&gt;AWAIT_SCRAMBLE_KEY</title>
<path fill="none" stroke="#000000" d="M125.7453,-134.0289C132.5639,-138.9969 139.4357,-144.7562 145,-151 150.2037,-156.8391 154.7885,-163.8973 158.6014,-170.7489"/>
<polygon fill="#000000" stroke="#000000" points="155.599,-172.5621 163.308,-179.83 161.8139,-169.341 155.599,-172.5621"/>
<text text-anchor="start" x="153" y="-154" font-family="Helvetica,sans-Serif" font-size="10.00" fill="#000000">icache_inval_i &#160;&#160;</text>
</g>
<!-- IDLE -->
<g id="node5" class="node state regular">
<title>IDLE</title>
<polygon fill="#ffffff" fill-opacity="0.003922" stroke="transparent" stroke-width="2" points="174,-52 118,-52 118,-16 174,-16 174,-52"/>
<text text-anchor="start" x="132.6644" y="-30.2" font-family="Helvetica,sans-Serif" font-size="12.00" fill="#000000">IDLE</text>
<path fill="none" stroke="#000000" stroke-width="2" d="M130.3333,-17C130.3333,-17 161.6667,-17 161.6667,-17 167.3333,-17 173,-22.6667 173,-28.3333 173,-28.3333 173,-39.6667 173,-39.6667 173,-45.3333 167.3333,-51 161.6667,-51 161.6667,-51 130.3333,-51 130.3333,-51 124.6667,-51 119,-45.3333 119,-39.6667 119,-39.6667 119,-28.3333 119,-28.3333 119,-22.6667 124.6667,-17 130.3333,-17"/>
</g>
<!-- INVAL_CACHE&#45;&gt;IDLE -->
<g id="edge4" class="edge transition">
<title>INVAL_CACHE&#45;&gt;IDLE</title>
<path fill="none" stroke="#000000" d="M100.6086,-97.8029C103.37,-88.7429 107.4162,-77.8618 112.865,-69 114.8208,-65.8192 117.1015,-62.6838 119.5346,-59.6746"/>
<polygon fill="#000000" stroke="#000000" points="122.2505,-61.8859 126.212,-52.0595 116.9874,-57.2708 122.2505,-61.8859"/>
<text text-anchor="start" x="112" y="-72" font-family="Helvetica,sans-Serif" font-size="10.00" fill="#000000">&amp;inval_index_q &#160;&#160;</text>
</g>
<!-- IDLE&#45;&gt;AWAIT_SCRAMBLE_KEY -->
<g id="edge5" class="edge transition">
<title>IDLE&#45;&gt;AWAIT_SCRAMBLE_KEY</title>
<path fill="none" stroke="#000000" d="M172.907,-52.213C179.0239,-57.1754 185.1424,-62.8861 190,-69 215.1047,-100.5974 220.1153,-111.6337 229,-151 230.1742,-156.2025 231.6219,-158.3556 229,-163 226.8536,-166.8022 224.1099,-170.2377 220.9874,-173.3328"/>
<polygon fill="#000000" stroke="#000000" points="218.5189,-170.8356 213.1167,-179.9497 223.0234,-176.1937 218.5189,-170.8356"/>
<text text-anchor="start" x="224" y="-113" font-family="Helvetica,sans-Serif" font-size="10.00" fill="#000000">icache_inval_i &#160;&#160;</text>
</g>
</g>
</svg>
